<svg width="4150" height="434" viewBox="0 0 4150 434" fill="none" xmlns="http://www.w3.org/2000/svg">
<g clip-path="url(#clip0_235_1484)">
<path d="M680.001 230.018L709.637 200.381H623.937V230.018H680.001ZM729.647 108.451H569.571V325.346H729.647V293.067H604.493V140.731H729.647V108.451Z" fill="#FAFAFA"/>
</g>
<g clip-path="url(#clip1_235_1484)">
<path d="M2469.39 230.018L2499.02 200.381H2413.32V230.018H2469.39ZM2519.03 108.451H2358.96V325.346H2519.03V293.067H2393.88V140.731H2519.03V108.451Z" fill="#FAFAFA"/>
</g>
<path d="M836.707 100.66H874.347L877.483 102.228L935.512 177.508L993.54 102.228L996.677 100.66H1034.32L1035.88 102.228L955.9 204.17L1045.29 318.658L1043.73 320.227H1006.09L1002.95 318.658L935.512 230.832L868.073 318.658L864.937 320.227H827.297L825.728 318.658L915.123 204.17L835.138 102.228L836.707 100.66Z" fill="#FAFAFA"/>
<path d="M1143.97 100.66H1314.92L1316.49 102.228L1192.59 288.86H1316.49L1318.05 290.742V318.658L1316.49 320.227H1134.56L1132.99 318.658L1256.89 132.027H1143.97L1142.4 130.458V102.228L1143.97 100.66Z" fill="#FAFAFA"/>
<path d="M1545.6 95.9552C1609.59 95.9552 1661.66 147.396 1661.66 210.443C1661.66 273.49 1609.59 324.932 1545.6 324.932C1481.61 324.932 1429.54 273.49 1429.54 210.443C1429.54 147.396 1481.61 95.9552 1545.6 95.9552ZM1545.6 128.89C1501.37 128.89 1465.61 165.275 1465.61 210.443C1465.61 255.611 1501.37 291.997 1545.6 291.997C1589.83 291.997 1625.58 255.611 1625.58 210.443C1625.58 165.275 1589.83 128.89 1545.6 128.89Z" fill="#FAFAFA"/>
<path d="M3443.43 95.9552C3507.42 95.9552 3559.48 147.396 3559.48 210.443C3559.48 273.49 3507.42 324.932 3443.43 324.932C3379.44 324.932 3327.37 273.49 3327.37 210.443C3327.37 147.396 3379.44 95.9552 3443.43 95.9552ZM3443.43 128.89C3399.2 128.89 3363.44 165.275 3363.44 210.443C3363.44 255.611 3399.2 291.997 3443.43 291.997C3487.65 291.997 3523.41 255.611 3523.41 210.443C3523.41 165.275 3487.65 128.89 3443.43 128.89Z" fill="#FAFAFA"/>
<path d="M3972.03 100.66H4000.26L4001.83 102.228V177.508L4091.22 102.228L4094.36 100.66H4135.14L4136.7 102.228L4025.35 194.76L4149.25 318.658L4147.68 320.227H4106.91L4103.77 318.658L4001.83 215.148V318.658L4000.26 320.227H3972.03L3970.46 318.658V102.228L3972.03 100.66Z" fill="#FAFAFA"/>
<path d="M2641.02 100.66H2813.54L2815.11 102.228V130.458L2813.54 132.027H2742.97V318.658L2741.4 320.227H2713.17L2711.6 318.658V132.027H2641.02L2639.46 130.458V102.228L2641.02 100.66Z" fill="#FAFAFA"/>
<path d="M2923.94 100.66H2955.31L2956.88 102.228L3007.06 268.472L3055.68 105.365L3057.25 103.797H3088.62L3090.19 105.365L3138.8 268.472L3188.99 102.228L3190.56 100.66H3221.93L3223.49 102.228L3156.06 318.658L3154.49 320.227H3124.69L3123.12 318.658L3072.93 157.12L3022.75 318.658L3021.18 320.227H2991.38L2989.81 318.658L2922.37 102.228L2923.94 100.66Z" fill="#FAFAFA"/>
<path d="M2169.66 284.654L2029.8 108.45H1997.43V325.345H2029.8V149.331L2169.66 325.345H2201.84V108.45H2169.66V284.654Z" fill="#FAFAFA"/>
<path d="M3828.35 226.262C3831.07 224.12 3833.41 221.784 3835.36 219.641C3846.07 207.568 3851.91 191.406 3851.91 174.464C3851.91 141.554 3829.13 108.45 3785.31 108.45H3660.3V331.806H3693.59V136.102H3785.31C3812.19 136.102 3824.06 155.38 3824.06 174.269C3824.06 184.395 3820.56 194.132 3814.52 200.947C3808.1 208.152 3799.14 212.242 3787.84 212.631H3753.18H3703.14V240.283H3769.73L3824.45 331.417H3859.12L3803.23 238.141C3814.13 235.609 3822.31 230.936 3828.35 225.873V226.262Z" fill="#FAFAFA"/>
<path opacity="0.1" fill-rule="evenodd" clip-rule="evenodd" d="M174.381 328.529C156.037 328.529 138.289 326.037 121.436 321.351C123.422 342.119 127.396 362.72 133.356 382.889C194.943 368.037 251.001 335.706 294.609 289.586L293.681 288.622C260.437 313.676 219.147 328.529 174.348 328.529H174.381Z" fill="black"/>
<path fill-rule="evenodd" clip-rule="evenodd" d="M280.757 54.2278L187.184 0C159.867 33.0949 139.338 70.8085 126.259 110.881C198.243 125.967 261.85 163.946 309.133 216.945C337.179 248.378 359.463 285.062 374.363 325.334V108.456H374.33L280.79 54.2278H280.757Z" fill="url(#paint0_linear_235_1484)"/>
<path opacity="0.3" fill-rule="evenodd" clip-rule="evenodd" d="M158.733 40.0819C158.934 39.7483 159.167 39.4147 159.367 39.0811L158.733 40.0819Z" fill="#A4A4A4"/>
<path fill-rule="evenodd" clip-rule="evenodd" d="M126.155 322.845C85.0302 331.518 42.2171 332.548 0 325.338L93.6061 379.565L187.212 433.793L280.785 379.565L374.391 325.338C359.491 285.032 337.207 248.349 309.162 216.948C260.157 271.974 195.556 308.258 126.221 322.845H126.155Z" fill="url(#paint1_linear_235_1484)"/>
<path fill-rule="evenodd" clip-rule="evenodd" d="M0 108.458V325.369C42.2171 332.579 85.0303 331.516 126.155 322.877C103.175 252.766 104.169 178.502 126.221 110.917C139.333 70.8437 159.829 33.1301 187.146 0.0351562L93.5399 54.263L0 108.458Z" fill="url(#paint2_linear_235_1484)"/>
<path opacity="0.3" fill-rule="evenodd" clip-rule="evenodd" d="M51.6284 188.867C39.3772 234.688 36.662 282.968 43.8141 329.886C71.5615 330.916 99.2096 328.524 126.162 322.842C103.183 252.731 104.176 178.467 126.229 110.881C139.341 70.8085 159.837 33.0949 187.154 0C118.282 44.625 71.9589 112.775 51.6284 188.867Z" fill="url(#paint3_linear_235_1484)"/>
<defs>
<linearGradient id="paint0_linear_235_1484" x1="414.66" y1="291.94" x2="148.679" y2="-0.965346" gradientUnits="userSpaceOnUse">
<stop stop-color="white"/>
<stop offset="1" stop-color="#D5D5D5"/>
</linearGradient>
<linearGradient id="paint1_linear_235_1484" x1="400.251" y1="274.333" x2="-8.10149" y2="410.403" gradientUnits="userSpaceOnUse">
<stop stop-color="#D4D4D4"/>
<stop offset="1" stop-color="#F9F9F9"/>
</linearGradient>
<linearGradient id="paint2_linear_235_1484" x1="8.44343" y1="367.768" x2="144.413" y2="-8.20008" gradientUnits="userSpaceOnUse">
<stop stop-color="white"/>
<stop offset="1" stop-color="#D4D4D4"/>
</linearGradient>
<linearGradient id="paint3_linear_235_1484" x1="113.532" y1="0" x2="113.532" y2="330.119" gradientUnits="userSpaceOnUse">
<stop stop-color="#DFDFDF"/>
<stop offset="1" stop-color="#A4A4A4" stop-opacity="0.49"/>
</linearGradient>
<clipPath id="clip0_235_1484">
<rect width="160.075" height="216.895" fill="white" transform="translate(569.546 108.45)"/>
</clipPath>
<clipPath id="clip1_235_1484">
<rect width="160.075" height="216.895" fill="white" transform="translate(2358.93 108.45)"/>
</clipPath>
</defs>
</svg>
